{"title":"Single White Female (1992) DVDRip XviD AC3 peaSoup","uid":7874832,"size":1101070155,"categoryP":"video","categoryS":"movies","magnet":"?xt=urn:btih:72835fe06a597b8f8d138ec2a6b773297cec8404&amp;dn=Single+White+Female+%281992%29+DVDRip+XviD+AC3+peaSoup&amp;tr=udp%3A%2F%2Ftracker.openbittorrent.com%3A80&amp;tr=udp%3A%2F%2Fopen.demonii.com%3A1337&amp;tr=udp%3A%2F%2Ftracker.coppersurfer.tk%3A6969&amp;tr=udp%3A%2F%2Fexodus.desync.com%3A6969","seeders":18,"leechers":8,"uploader":"peaSoup","files":-1,"time":1354307883,"description":"When a 'Single White Female' places an ad in the press for a similar woman to rent a room (to replace the boyfriend she's just left), all the applicants seem weird. Then along comes a level headed woman who seems to be just right. The new lodger has a secret past which haunts her. Format                                   : AVI\nFormat/Info                              : Audio Video Interleave\nFormat profile                           : OpenDML\nFile size                                : 1.02 GiB\nDuration                                 : 1h 43mn\nOverall bit rate                         : 1 414 Kbps\nMovie name                               : Single White Female (1992) DVDRip XviD AC3 peaSoup\nWriting application                      : Lavf53.21.0\nOriginal source form/Name                : DVD_VIDEO\n\nVideo\nID                                       : 0\nFormat                                   : MPEG-4 Visual\nFormat profile                           : Advanced Simple@L5\nFormat settings, BVOP                    : 2\nFormat settings, QPel                    : No\nFormat settings, GMC                     : No warppoints\nFormat settings, Matrix                  : Default (H.263)\nMuxing mode                              : Packed bitstream\nCodec ID                                 : XVID\nCodec ID/Hint                            : XviD\nDuration                                 : 1h 43mn\nBit rate                                 : 1 208 Kbps\nWidth                                    : 720 pixels\nHeight                                   : 414 pixels\nDisplay aspect ratio                     : 1.739\nFrame rate                               : 25.000 fps\nColor space                              : YUV\nChroma subsampling                       : 4:2:0\nBit depth                                : 8 bits\nScan type                                : Progressive\nCompression mode                         : Lossy\nBits/(Pixel*Frame)                       : 0.162\nStream size                              : 895 MiB (85%)\nWriting library                          : XviD 1.2.1 (UTC 2008-12-04)\n\nAudio\nID                                       : 1\nFormat                                   : AC-3\nFormat/Info                              : Audio Coding 3\nFormat profile                           : Dolby Digital\nMode extension                           : CM (complete main)\nFormat settings, Endianness              : Big\nCodec ID                                 : 2000\nDuration                                 : 1h 43mn\nBit rate mode                            : Constant\nBit rate                                 : 192 Kbps\nChannel(s)                               : 2 channels\nChannel positions                        : Front: L R\nSampling rate                            : 48.0 KHz\nBit depth                                : 16 bits\nCompression mode                         : Lossy\nStream size                              : 142 MiB (14%)\nAlignment                                : Aligned on interleaves\nInterleave, duration                     : 32 ms (0.80 video frame)\n\n","torrent":{"xt":"urn:btih:72835fe06a597b8f8d138ec2a6b773297cec8404","amp;dn":"Single+White+Female+%281992%29+DVDRip+XviD+AC3+peaSoup","amp;tr":["udp%3A%2F%2Ftracker.openbittorrent.com%3A80","udp%3A%2F%2Fopen.demonii.com%3A1337","udp%3A%2F%2Ftracker.coppersurfer.tk%3A6969","udp%3A%2F%2Fexodus.desync.com%3A6969"],"infoHash":"72835fe06a597b8f8d138ec2a6b773297cec8404","infoHashBuffer":{"type":"Buffer","data":[114,131,95,224,106,89,123,143,141,19,142,194,166,183,115,41,124,236,132,4]},"announce":[],"urlList":[]}}